<svg width="800" height="600" xmlns="http://www.w3.org/2000/svg">
    <title>Small Transit Van</title>
    <defs>
      <linearGradient id="vanGradient" x1="0%" y1="0%" x2="0%" y2="100%">
        <stop offset="0%" stop-color="#ffffff" stop-opacity="1" />
        <stop offset="100%" stop-color="#e0e0e0" stop-opacity="1" />
      </linearGradient>
      <filter id="shadow" x="-10%" y="-10%" width="120%" height="130%">
        <feDropShadow dx="2" dy="4" stdDeviation="4" flood-opacity="0.3" />
      </filter>
    </defs>
    <g transform="translate(100, 200)">
      <rect x="100" y="50" width="500" height="200" rx="20" fill="url(#vanGradient)" filter="url(#shadow)" />
      <path d="M100,150 L50,200 L50,250 L600,250 L600,150 L550,50 L100,50 Z" fill="#f5f5f5" stroke="#333" stroke-width="2" />
      <rect x="530" y="100" width="70" height="120" fill="#333" opacity="0.8" />
      <circle cx="150" cy="250" r="40" fill="#333" />
      <circle cx="150" cy="250" r="25" fill="#777" />
      <circle cx="150" cy="250" r="15" fill="#444" />
      <circle cx="450" cy="250" r="40" fill="#333" />
      <circle cx="450" cy="250" r="25" fill="#777" />
      <circle cx="450" cy="250" r="15" fill="#444" />
      <rect x="120" y="100" width="80" height="60" rx="5" fill="#4c85c0" fill-opacity="0.7" />
      <text x="300" y="150" font-family="Arial" font-size="32" text-anchor="middle" fill="#3366cc" font-weight="bold">Small Van</text>
      <text x="300" y="180" font-family="Arial" font-size="18" text-anchor="middle" fill="#666">Perfect for small moves</text>
    </g>
  </svg>