<svg width="800" height="600" xmlns="http://www.w3.org/2000/svg">
    <title>Large Transit Van</title>
    <defs>
      <linearGradient id="vanGradient" x1="0%" y1="0%" x2="0%" y2="100%">
        <stop offset="0%" stop-color="#ffffff" stop-opacity="1" />
        <stop offset="100%" stop-color="#e0e0e0" stop-opacity="1" />
      </linearGradient>
      <filter id="shadow" x="-10%" y="-10%" width="120%" height="130%">
        <feDropShadow dx="2" dy="4" stdDeviation="4" flood-opacity="0.3" />
      </filter>
    </defs>
    <g transform="translate(50, 200)">
      <rect x="10" y="30" width="700" height="220" rx="20" fill="url(#vanGradient)" filter="url(#shadow)" />
      <path d="M10,150 L0,200 L0,250 L710,250 L710,150 L650,30 L10,30 Z" fill="#f5f5f5" stroke="#333" stroke-width="2" />
      <rect x="650" y="80" width="60" height="140" fill="#333" opacity="0.8" />
      <circle cx="150" cy="250" r="40" fill="#333" />
      <circle cx="150" cy="250" r="25" fill="#777" />
      <circle cx="150" cy="250" r="15" fill="#444" />
      <circle cx="550" cy="250" r="40" fill="#333" />
      <circle cx="550" cy="250" r="25" fill="#777" />
      <circle cx="550" cy="250" r="15" fill="#444" />
      <rect x="120" y="80" width="80" height="60" rx="5" fill="#4c85c0" fill-opacity="0.7" />
      <rect x="250" y="80" width="140" height="140" rx="5" fill="#333" opacity="0.7" />
      <rect x="450" y="80" width="60" height="140" rx="5" fill="#333" opacity="0.7" />
      <text x="350" y="130" font-family="Arial" font-size="36" text-anchor="middle" fill="#3366cc" font-weight="bold">Large Van</text>
      <text x="350" y="170" font-family="Arial" font-size="20" text-anchor="middle" fill="#666">Perfect for larger moves</text>
    </g>
  </svg>