<svg width="800" height="600" xmlns="http://www.w3.org/2000/svg">
    <title>Luton Van</title>
    <defs>
      <linearGradient id="vanGradient" x1="0%" y1="0%" x2="0%" y2="100%">
        <stop offset="0%" stop-color="#ffffff" stop-opacity="1" />
        <stop offset="100%" stop-color="#e0e0e0" stop-opacity="1" />
      </linearGradient>
      <filter id="shadow" x="-10%" y="-10%" width="120%" height="130%">
        <feDropShadow dx="2" dy="4" stdDeviation="4" flood-opacity="0.3" />
      </filter>
    </defs>
    <g transform="translate(50, 150)">
      <rect x="120" y="30" width="400" height="170" rx="5" fill="url(#vanGradient)" filter="url(#shadow)" />
      <rect x="0" y="200" width="700" height="70" rx="10" fill="#ffffff" stroke="#333" stroke-width="2" />
      <rect x="520" y="30" width="180" height="170" rx="5" fill="url(#vanGradient)" filter="url(#shadow)" />
      <rect x="100" y="140" width="120" height="60" rx="5" fill="#4c85c0" fill-opacity="0.7" />
      <circle cx="150" cy="270" r="40" fill="#333" />
      <circle cx="150" cy="270" r="25" fill="#777" />
      <circle cx="150" cy="270" r="15" fill="#444" />
      <circle cx="550" cy="270" r="40" fill="#333" />
      <circle cx="550" cy="270" r="25" fill="#777" />
      <circle cx="550" cy="270" r="15" fill="#444" />
      <rect x="300" y="220" width="100" height="50" fill="#999" />
      <path d="M300,220 L400,220 L400,270 L300,270 Z" fill="#555" />
      <text x="350" y="100" font-family="Arial" font-size="36" text-anchor="middle" fill="#3366cc" font-weight="bold">Luton Van</text>
      <text x="350" y="140" font-family="Arial" font-size="20" text-anchor="middle" fill="#666">Maximum space with tail lift</text>
    </g>
  </svg>